<mxfile host="app.diagrams.net" modified="2024-03-14T11:26:55.025Z" agent="Mozilla/5.0 (Macintosh; Intel Mac OS X 10.15; rv:123.0) Gecko/20100101 Firefox/123.0" version="24.0.6" etag="_aNowGe5dMNpKKjdMC3i" type="github">
  <diagram name="Page-1" id="eN6wsUapRcMcwDwwMix6">
    <mxGraphModel>
      <root>
        <mxCell id="0" />
        <mxCell id="1" parent="0" />
      </root>
    </mxGraphModel>
  </diagram>
</mxfile>
